<svg width="200" height="200" viewBox="0 0 200 200" fill="none" xmlns="http://www.w3.org/2000/svg">
<rect width="200" height="200" fill="white"/>
<path d="M60 10H50V20H60V10Z" fill="#DCB67E"/>
<path d="M70 10H60V20H70V10Z" fill="#DCB67E"/>
<path d="M120 10H110V20H120V10Z" fill="#DCB67E"/>
<path d="M110 10H100V20H110V10Z" fill="#DCB67E"/>
<path d="M100 10H90V20H100V10Z" fill="#DCB67E"/>
<path d="M90 10H80V20H90V10Z" fill="#DCB67E"/>
<path d="M80 10H70V20H80V10Z" fill="#DCB67E"/>
<path d="M130 10H120V20H130V10Z" fill="#DCB67E"/>
<path d="M140 10H130V20H140V10Z" fill="#DCB67E"/>
<path d="M50 20H40V30H50V20Z" fill="#DCB67E"/>
<path d="M40 100H30V110H40V100Z" fill="#DCB67E"/>
<path d="M40 90H30V100H40V90Z" fill="#DCB67E"/>
<path d="M50 40H40V50H50V40Z" fill="#DCB67E"/>
<path d="M40 40H30V50H40V40Z" fill="#DCB67E"/>
<path d="M50 110H40V120H50V110Z" fill="#DCB67E"/>
<path d="M50 80H40V90H50V80Z" fill="#DCB67E"/>
<path d="M40 80H30V90H40V80Z" fill="#DCB67E"/>
<path d="M50 50H40V60H50V50Z" fill="#DCB67E"/>
<path d="M40 50H30V60H40V50Z" fill="#DCB67E"/>
<path d="M50 60H40V70H50V60Z" fill="#DCB67E"/>
<path d="M40 60H30V70H40V60Z" fill="#DCB67E"/>
<path d="M50 70H40V80H50V70Z" fill="#DCB67E"/>
<path d="M40 70H30V80H40V70Z" fill="#DCB67E"/>
<path d="M60 30H50V40H60V30Z" fill="#DCB67E"/>
<path d="M50 30H40V40H50V30Z" fill="#DCB67E"/>
<path d="M40 30H30V40H40V30Z" fill="#DCB67E"/>
<path d="M170 125H160V135H170V125Z" fill="#DCB67E"/>
<path d="M170 115H160V125H170V115Z" fill="#DCB67E"/>
<path d="M170 65H160V75H170V65Z" fill="#DCB67E"/>
<path d="M170 105H160V115H170V105Z" fill="#DCB67E"/>
<path d="M170 75H160V85H170V75Z" fill="#DCB67E"/>
<path d="M170 85H160V95H170V85Z" fill="#DCB67E"/>
<path d="M170 95H160V105H170V95Z" fill="#DCB67E"/>
<path d="M170 55H160V65H170V55Z" fill="#DCB67E"/>
<path d="M100 135H90V145H100V135Z" fill="#DCB67E"/>
<path d="M100 145H90V155H100V145Z" fill="#DCB67E"/>
<path d="M100 155H90V165H100V155Z" fill="#DCB67E"/>
<path d="M100 165H90V175H100V165Z" fill="#DCB67E"/>
<path d="M100 125H90V135H100V125Z" fill="#DCB67E"/>
<path d="M110 130H100V140H110V130Z" fill="#DCB67E"/>
<path d="M110 170H100V180H110V170Z" fill="#DCB67E"/>
<path d="M110 140H100V150H110V140Z" fill="#DCB67E"/>
<path d="M110 150H100V160H110V150Z" fill="#DCB67E"/>
<path d="M110 160H100V170H110V160Z" fill="#DCB67E"/>
<path d="M110 120H100V130H110V120Z" fill="#DCB67E"/>
<path d="M90 135H80V145H90V135Z" fill="#DCB67E"/>
<path d="M90 145H80V155H90V145Z" fill="#DCB67E"/>
<path d="M90 155H80V165H90V155Z" fill="#DCB67E"/>
<path d="M90 165H80V175H90V165Z" fill="#DCB67E"/>
<path d="M90 125H80V135H90V125Z" fill="#DCB67E"/>
<path d="M120 130H110V140H120V130Z" fill="#DCB67E"/>
<path d="M120 170H110V180H120V170Z" fill="#DCB67E"/>
<path d="M120 140H110V150H120V140Z" fill="#DCB67E"/>
<path d="M120 150H110V160H120V150Z" fill="#DCB67E"/>
<path d="M120 160H110V170H120V160Z" fill="#DCB67E"/>
<path d="M120 120H110V130H120V120Z" fill="#DCB67E"/>
<path d="M80 135H70V145H80V135Z" fill="#DCB67E"/>
<path d="M80 145H70V155H80V145Z" fill="#DCB67E"/>
<path d="M80 155H70V165H80V155Z" fill="#DCB67E"/>
<path d="M80 165H70V175H80V165Z" fill="#DCB67E"/>
<path d="M80 125H70V135H80V125Z" fill="#DCB67E"/>
<path d="M70 130H60V140H70V130Z" fill="#DCB67E"/>
<path d="M70 170H60V180H70V170Z" fill="#DCB67E"/>
<path d="M70 140H60V150H70V140Z" fill="#DCB67E"/>
<path d="M70 150H60V160H70V150Z" fill="#DCB67E"/>
<path d="M70 160H60V170H70V160Z" fill="#DCB67E"/>
<path d="M70 120H60V130H70V120Z" fill="#DCB67E"/>
<path d="M130 140H120V150H130V140Z" fill="#DCB67E"/>
<path d="M130 150H120V160H130V150Z" fill="#DCB67E"/>
<path d="M130 160H120V170H130V160Z" fill="#DCB67E"/>
<path d="M130 170H120V180H130V170Z" fill="#DCB67E"/>
<path d="M130 130H120V140H130V130Z" fill="#DCB67E"/>
<path d="M140 135H130V145H140V135Z" fill="#DCB67E"/>
<path d="M140 145H130V155H140V145Z" fill="#DCB67E"/>
<path d="M140 155H130V165H140V155Z" fill="#DCB67E"/>
<path d="M140 165H130V175H140V165Z" fill="#DCB67E"/>
<path d="M140 125H130V135H140V125Z" fill="#DCB67E"/>
<path d="M50 125H40V135H50V125Z" fill="#DCB67E"/>
<path d="M50 135H40V145H50V135Z" fill="#DCB67E"/>
<path d="M50 145H40V155H50V145Z" fill="#DCB67E"/>
<path d="M50 155H40V165H50V155Z" fill="#DCB67E"/>
<path d="M50 115H40V125H50V115Z" fill="#DCB67E"/>
<path d="M60 175H50V185H60V175Z" fill="#DCB67E"/>
<path d="M60 125H50V135H60V125Z" fill="#DCB67E"/>
<path d="M60 165H50V175H60V165Z" fill="#DCB67E"/>
<path d="M60 135H50V145H60V135Z" fill="#DCB67E"/>
<path d="M60 145H50V155H60V145Z" fill="#DCB67E"/>
<path d="M60 155H50V165H60V155Z" fill="#DCB67E"/>
<path d="M60 115H50V125H60V115Z" fill="#DCB67E"/>
<path d="M150 155H140V165H150V155Z" fill="#DCB67E"/>
<path d="M150 165H140V175H150V165Z" fill="#DCB67E"/>
<path d="M150 125H140V135H150V125Z" fill="#DCB67E"/>
<path d="M40 120H30V130H40V120Z" fill="#DCB67E"/>
<path d="M40 130H30V140H40V130Z" fill="#DCB67E"/>
<path d="M40 110H30V120H40V110Z" fill="#DCB67E"/>
<path d="M30 110H20V120H30V110Z" fill="#DCB67E"/>
<path d="M30 100H20V110H30V100Z" fill="#DCB67E"/>
<path d="M30 50H20V60H30V50Z" fill="#DCB67E"/>
<path d="M30 90H20V100H30V90Z" fill="#DCB67E"/>
<path d="M30 60H20V70H30V60Z" fill="#DCB67E"/>
<path d="M30 70H20V80H30V70Z" fill="#DCB67E"/>
<path d="M30 80H20V90H30V80Z" fill="#DCB67E"/>
<path d="M30 40H20V50H30V40Z" fill="#DCB67E"/>
<path d="M70 20H60V30H70V20Z" fill="#DCB67E"/>
<path d="M60 20H50V30H60V20Z" fill="#DCB67E"/>
<path d="M80 20H70V30H80V20Z" fill="#DCB67E"/>
<path d="M90 20H80V30H90V20Z" fill="#DCB67E"/>
<path d="M160 30H150V40H160V30Z" fill="#DCB67E"/>
<path d="M150 20H140V30H150V20Z" fill="#DCB67E"/>
<path d="M140 20H130V30H140V20Z" fill="#DCB67E"/>
<path d="M130 20H120V30H130V20Z" fill="#DCB67E"/>
<path d="M120 20H110V30H120V20Z" fill="#DCB67E"/>
<path d="M110 20H100V30H110V20Z" fill="#DCB67E"/>
<path d="M100 20H90V30H100V20Z" fill="#DCB67E"/>
<path d="M170 40H160V50H170V40Z" fill="#DCB67E"/>
<path d="M70 30H60V40H70V30Z" fill="#DCB67E"/>
<path d="M60 40H50V50H60V40Z" fill="#DCB67E"/>
<path d="M60 80H50V90H60V80Z" fill="#DCB67E"/>
<path d="M60 50H50V60H60V50Z" fill="#DCB67E"/>
<path d="M60 60H50V70H60V60Z" fill="#DCB67E"/>
<path d="M60 70H50V80H60V70Z" fill="#DCB67E"/>
<path d="M130 30H120V40H130V30Z" fill="#DCB67E"/>
<path d="M120 30H110V40H120V30Z" fill="#DCB67E"/>
<path d="M110 30H100V40H110V30Z" fill="#DCB67E"/>
<path d="M130 40H120V50H130V40Z" fill="#DCB67E"/>
<path d="M120 40H110V50H120V40Z" fill="#DCB67E"/>
<path d="M110 40H100V50H110V40Z" fill="#DCB67E"/>
<path d="M160 40H150V50H160V40Z" fill="#DCB67E"/>
<path d="M150 40H140V50H150V40Z" fill="#DCB67E"/>
<path d="M140 40H130V50H140V40Z" fill="#DCB67E"/>
<path d="M150 30H140V40H150V30Z" fill="#DCB67E"/>
<path d="M140 30H130V40H140V30Z" fill="#DCB67E"/>
<path d="M130 30H120V40H130V30Z" fill="#DCB67E"/>
<path d="M100 30H90V40H100V30Z" fill="#DCB67E"/>
<path d="M90 30H80V40H90V30Z" fill="#DCB67E"/>
<path d="M80 30H70V40H80V30Z" fill="#DCB67E"/>
<path d="M90 40H80V50H90V40Z" fill="#DCB67E"/>
<path d="M80 40H70V50H80V40Z" fill="#DCB67E"/>
<path d="M70 40H60V50H70V40Z" fill="#DCB67E"/>
<path d="M90 50H80V60H90V50Z" fill="#DCB67E"/>
<path d="M80 50H70V60H80V50Z" fill="#DCB67E"/>
<path d="M70 50H60V60H70V50Z" fill="#DCB67E"/>
<path d="M90 60H80V70H90V60Z" fill="#DCB67E"/>
<path d="M80 60H70V70H80V60Z" fill="#DCB67E"/>
<path d="M70 60H60V70H70V60Z" fill="#DCB67E"/>
<path d="M160 50H150V60H160V50Z" fill="#DCB67E"/>
<path d="M150 50H140V60H150V50Z" fill="#DCB67E"/>
<path d="M140 50H130V60H140V50Z" fill="#DCB67E"/>
<path d="M170 80V70H160V80H170Z" fill="#DCB67E"/>
<path d="M170 70V60H160V70H170Z" fill="#DCB67E"/>
<path d="M165 60H155V70H165V60Z" fill="#DCB67E"/>
<path d="M155 60H145V70H155V60Z" fill="#DCB67E"/>
<path d="M100 60V50H90V60H100Z" fill="#DCB67E"/>
<path d="M100 50V40H90V50H100Z" fill="#DCB67E"/>
<path d="M70 100V90H60V100H70Z" fill="#DCB67E"/>
<path d="M70 90V80H60V90H70Z" fill="#DCB67E"/>
<path d="M80 70H70V80H80V70Z" fill="#DCB67E"/>
<path d="M70 70H60V80H70V70Z" fill="#DCB67E"/>
<path d="M170 60V50H160V60H170Z" fill="#DCB67E"/>
<path d="M130 60H120V70H130V60Z" fill="#DFA07C"/>
<path d="M120 60H110V70H120V60Z" fill="#DFA07C"/>
<path d="M110 60H100V70H110V60Z" fill="#DFA07C"/>
<path d="M50 100H40V110H50V100Z" fill="#E9C6A0"/>
<path d="M60 90H50V100H60V90Z" fill="#E9C6A0"/>
<path d="M50 90H40V100H50V90Z" fill="#E9C6A0"/>
<path d="M160 120V110H150V120H160Z" fill="#E9C6A0"/>
<path d="M160 110V100H150V110H160Z" fill="#E8B796"/>
<path d="M160 100V90H150V100H160Z" fill="#E9C6A0"/>
<path d="M130 80H120V90H130V80Z" fill="#E9C6A0"/>
<path d="M120 80H110V90H120V80Z" fill="#E9C6A0"/>
<path d="M110 80H100V90H110V80Z" fill="#DFA07C"/>
<path d="M160 80H150V90H160V80Z" fill="#E9C6A0"/>
<path d="M150 80H140V90H150V80Z" fill="#E9C6A0"/>
<path d="M140 80H130V90H140V80Z" fill="#DFA07C"/>
<path d="M130 90H120V100H130V90Z" fill="#E9C6A0"/>
<path d="M120 90H110V100H120V90Z" fill="#E9C6A0"/>
<path d="M110 90H100V100H110V90Z" fill="#DFA07C"/>
<path d="M160 90H150V100H160V90Z" fill="#E9C6A0"/>
<path d="M150 90H140V100H150V90Z" fill="#E9C6A0"/>
<path d="M140 90H130V100H140V90Z" fill="#DFA07C"/>
<path d="M120 100H110V110H120V100Z" fill="#E9C6A0"/>
<path d="M110 100H100V110H110V100Z" fill="#E9C6A0"/>
<path d="M100 100H90V110H100V100Z" fill="#E8B796"/>
<path d="M150 100H140V110H150V100Z" fill="#E8B796"/>
<path d="M140 100H130V110H140V100Z" fill="#E9C6A0"/>
<path d="M130 100H120V110H130V100Z" fill="#E9C6A0"/>
<path d="M120 110H110V120H120V110Z" fill="#E9C6A0"/>
<path d="M110 110H100V120H110V110Z" fill="#E9C6A0"/>
<path d="M100 110H90V120H100V110Z" fill="#E9C6A0"/>
<path d="M150 110H140V120H150V110Z" fill="#E9C6A0"/>
<path d="M140 110H130V120H140V110Z" fill="#E9C6A0"/>
<path d="M80 180H90V170H80V180Z" fill="#DFA07C"/>
<path d="M90 170V160H80V170H90Z" fill="#DFA07C"/>
<path d="M90 160V150H80V160H90Z" fill="#DFA07C"/>
<path d="M80 180H90V170H80V180Z" fill="#DFA07C"/>
<path d="M90 170V160H80V170H90Z" fill="#DFA07C"/>
<path d="M90 160V150H80V160H90Z" fill="#DFA07C"/>
<path d="M70 180H80V170H70V180Z" fill="#211714"/>
<path d="M80 170V160H70V170H80Z" fill="#DFA07C"/>
<path d="M80 160V150H70V160H80Z" fill="#DFA07C"/>
<path d="M60 180H70V170H60V180Z" fill="#211714"/>
<path d="M70 170V160H60V170H70Z" fill="#211714"/>
<path d="M70 160V150H60V160H70Z" fill="#DFA07C"/>
<path d="M70 170H80V160H70V170Z" fill="#211714"/>
<path d="M80 160V150H70V160H80Z" fill="#211714"/>
<path d="M80 150V140H70V150H80Z" fill="#211714"/>
<path d="M70 160V150H60V160H70Z" fill="#211714"/>
<path d="M120 180H130V170H120V180Z" fill="#211714"/>
<path d="M130 170V160H120V170H130Z" fill="#211714"/>
<path d="M130 160V150H120V160H130Z" fill="#211714"/>
<path d="M130 180H140V170H130V180Z" fill="#211714"/>
<path d="M140 170V160H130V170H140Z" fill="#211714"/>
<path d="M140 160V150H130V160H140Z" fill="#211714"/>
<path d="M150 160V150H140V160H150Z" fill="#211714"/>
<path d="M150 170V160H140V170H150Z" fill="#211714"/>
<path d="M150 180V170H140V180H150Z" fill="#211714"/>
<path d="M130 150V140H120V150H130Z" fill="#211714"/>
<path d="M120 140H110V150H120V140Z" fill="#DFA07C"/>
<path d="M111 140H101V150H111V140Z" fill="#DFA07C"/>
<path d="M110 150V140H100V150H110Z" fill="#E9C6A0"/>
<path d="M100 140H90V150H100V140Z" fill="#E9C6A0"/>
<path d="M90 140H80V150H90V140Z" fill="#DFA07C"/>
<path d="M130 110H120V120H130V110Z" fill="#E9C6A0"/>
<path d="M110 120H100V130H110V120Z" fill="#E9C6A0"/>
<path d="M100 120H90V130H100V120Z" fill="#E9C6A0"/>
<path d="M90 120H80V130H90V120Z" fill="#E9C6A0"/>
<path d="M80 110H70V120H80V110Z" fill="#E9C6A0"/>
<path d="M70 110H60V120H70V110Z" fill="#E9C6A0"/>
<path d="M60 110H50V120H60V110Z" fill="#E9C6A0"/>
<path d="M140 120H130V130H140V120Z" fill="#E9C6A0"/>
<path d="M130 120H120V130H130V120Z" fill="#E9C6A0"/>
<path d="M120 120H110V130H120V120Z" fill="#E9C6A0"/>
<path d="M150 120H140V130H150V120Z" fill="#E9C6A0"/>
<path d="M140 120H130V130H140V120Z" fill="#E9C6A0"/>
<path d="M130 120H120V130H130V120Z" fill="#E9C6A0"/>
<path d="M170 110V100H160V110H170Z" fill="#E9C6A0"/>
<path d="M170 100V90H160V100H170Z" fill="#E9C6A0"/>
<path d="M170 90V80H160V90H170Z" fill="#E9C6A0"/>
<path d="M90 100H80V110H90V100Z" fill="#E8B796"/>
<path d="M80 100H70V110H80V100Z" fill="#E9C6A0"/>
<path d="M70 100H60V110H70V100Z" fill="#E9C6A0"/>
<path d="M90 110H80V120H90V110Z" fill="#E9C6A0"/>
<path d="M80 110H70V120H80V110Z" fill="#E9C6A0"/>
<path d="M70 110H60V120H70V110Z" fill="#E9C6A0"/>
<path d="M80 120H70V130H80V120Z" fill="#E9C6A0"/>
<path d="M70 120H60V130H70V120Z" fill="#E9C6A0"/>
<path d="M100 90H90V100H100V90Z" fill="#E9C6A0"/>
<path d="M90 90H80V100H90V90Z" fill="#E9C6A0"/>
<path d="M80 90H70V100H80V90Z" fill="#E9C6A0"/>
<path d="M100 80H90V90H100V80Z" fill="#E9C6A0"/>
<path d="M90 80H80V90H90V80Z" fill="#E9C6A0"/>
<path d="M80 80H70V90H80V80Z" fill="#E9C6A0"/>
<path d="M160 70H150V80H160V70Z" fill="#E9C6A0"/>
<path d="M150 70H140V80H150V70Z" fill="#E9C6A0"/>
<path d="M140 70H130V80H140V70Z" fill="#DFA07C"/>
<path d="M140 70H130V80H140V70Z" fill="#E9C6A0"/>
<path d="M130 70H120V80H130V70Z" fill="#E9C6A0"/>
<path d="M120 70H110V80H120V70Z" fill="#E9C6A0"/>
<path d="M110 70H100V80H110V70Z" fill="#E9C6A0"/>
<path d="M100 70H90V80H100V70Z" fill="#E9C6A0"/>
<path d="M90 70H80V80H90V70Z" fill="#E9C6A0"/>
<path d="M120 60H110V70H120V60Z" fill="#E9C6A0"/>
<path d="M110 60H100V70H110V60Z" fill="#E9C6A0"/>
<path d="M100 60H90V70H100V60Z" fill="#E9C6A0"/>
<path d="M150 60H140V70H150V60Z" fill="#E9C6A0"/>
<path d="M140 60H130V70H140V60Z" fill="#E9C6A0"/>
<path d="M130 60H120V70H130V60Z" fill="#E9C6A0"/>
<path d="M130 50H120V60H130V50Z" fill="#E9C6A0"/>
<path d="M120 50H110V60H120V50Z" fill="#E9C6A0"/>
<path d="M110 50H100V60H110V50Z" fill="#E9C6A0"/>
<path d="M100 80V90H110V80H100Z" fill="#3D251D" fill-opacity="0.75"/>
<path d="M130 90V100H140V90H130Z" fill="#3D251D"/>
<path d="M130 80V90H140V80H130Z" fill="#3D251D" fill-opacity="0.7"/>
<path d="M100 90V100H110V90H100Z" fill="#3D251D"/>
<path d="M90 130V140H100V130H90Z" fill="#E9C6A0"/>
<path d="M60 100H50V110H60V100Z" fill="#E4A673"/>
<path d="M100 130H90V140H100V130Z" fill="#E9C6A0"/>
<path d="M110 130H100V140H110V130Z" fill="#E9C6A0"/>
<path d="M120 150H110V160H120V150Z" fill="#3D3736"/>
<path d="M90 160H80V170H90V160Z" fill="#3D3736"/>
<path d="M90 170H80V180H90V170Z" fill="#3D3736"/>
<path d="M90 150H80V160H90V150Z" fill="#3D3736"/>
<path d="M90 140H80V150H90V140Z" fill="#3D3736"/>
<path d="M120 170H110V180H120V170Z" fill="#3D3736"/>
<path d="M120 160H110V170H120V160Z" fill="#3D3736"/>
<path d="M120 140H110V150H120V140Z" fill="#3D3736"/>
<path d="M100 150H90V160H100V150Z" fill="#824D3B"/>
<path d="M110 150H100V160H110V150Z" fill="#824D3B"/>
<path d="M100 160H90V170H100V160Z" fill="#824D3B"/>
<path d="M110 160H100V170H110V160Z" fill="#824D3B"/>
<path d="M100 170H90V180H100V170Z" fill="#824D3B"/>
<path d="M110 170H100V180H110V170Z" fill="#824D3B"/>
<rect x="100" y="87" width="5" height="5" fill="#D9D9D9"/>
<rect x="130" y="87" width="5" height="5" fill="#D9D9D9"/>
<rect x="50" y="115" width="5" height="5" fill="#3D251D"/>
</svg>
